<svg xmlns="http://www.w3.org/2000/svg" fill="none" viewBox="0 0 48 48" height="48" width="48" id="Online-Consultation-Chat-1--Streamline-Ultimate.svg"><desc>Online Consultation Chat 1 Streamline Icon: https://streamlinehq.com</desc><path fill="#000000" fill-rule="evenodd" d="M8.87498 0.653138c-1.28922 0 -2.52566 0.512144 -3.43728 1.423762 -0.91162 0.91164 -1.42378 2.14806 -1.42378 3.4373v19.923L0.729848 35.2894c-0.179676 0.539 -0.039372 1.1332 0.362414 1.535 0.401784 0.4018 0.996078 0.542 1.535078 0.3622l9.0094 -3.004h7.33104V27.462c0 -1.5628 0.62082 -3.0616 1.72582 -4.1666 1.1052 -1.1052 2.6038 -1.726 4.1666 -1.726h15.7642V5.5142c0 -1.28924 -0.512 -2.52566 -1.4236 -3.4373 -0.9118 -0.911616 -2.1482 -1.423762 -3.4374 -1.423762H8.87498ZM32.3476 9.22064c0 0.82842 -0.6716 1.5 -1.5 1.5H13.0878c-0.82844 0 -1.5 -0.67158 -1.5 -1.5s0.67156 -1.5 1.5 -1.5h17.7598c0.8284 0 1.5 0.67158 1.5 1.5Zm-12.078 9.44318c0.8284 0 1.5 -0.67158 1.5 -1.5s-0.6716 -1.5 -1.5 -1.5H13.08766c-0.82844 0 -1.50002 0.67158 -1.50002 1.5s0.67158 1.5 1.50002 1.5h7.18194Zm17.607 26.15318 8.6024 2.4578c0.7064 0.2018 1.382 -0.4014 1.2612 -1.126l-1.1862 -7.1168v-11.57c0 -0.7672 -0.3048 -1.503 -0.8472 -2.0454s-1.2782 -0.8472 -2.0454 -0.8472h-18.8012c-0.767 0 -1.5028 0.3048 -2.0452 0.8472s-0.8472 1.2782 -0.8472 2.0454v14.4624c0 0.7672 0.3048 1.5028 0.8472 2.0454 0.5424 0.5424 1.2782 0.8472 2.0452 0.8472h13.0164Zm-2.4012 -16.6974h-2.7542c-0.5524 0 -1 0.4476 -1 1v3.0378h-3.0376c-0.5522 0 -1 0.4476 -1 1v2.7542c0 0.5522 0.4478 1 1 1h3.0376v3.0378c0 0.5522 0.4476 1 1 1h2.7542c0.5522 0 1 -0.4478 1 -1v-3.0378h3.038c0.5522 0 1 -0.4478 1 -1v-2.7542c0 -0.5524 -0.4478 -1 -1 -1h-3.038v-3.0378c0 -0.5524 -0.4478 -1 -1 -1Z" clip-rule="evenodd" stroke-width="1"></path></svg>