<svg xmlns="http://www.w3.org/2000/svg" viewBox="0 0 24 24" height="24" width="24" id="Recruiting-Resume-Document--Streamline-Ultimate.svg"><desc>Recruiting Resume Document Streamline Icon: https://streamlinehq.com</desc><g id="Recruiting-Resume-Document--Streamline-Ultimate.svg"><g><path d="M12.56 13.71H3.85a0.75 0.75 0 0 0 0 1.5h8.71a0.75 0.75 0 1 0 0 -1.5Z" fill="#000000" stroke-width="1"></path><path d="M11.25 18.16h-7.4a0.75 0.75 0 1 0 0 1.5h7.4a0.75 0.75 0 0 0 0 -1.5Z" fill="#000000" stroke-width="1"></path></g><path d="M4.44 3.49h3.89s1.04 0 1.04 1.04v4.64s0 1.04 -1.04 1.04H4.44s-1.04 0 -1.04 -1.04V4.53s0 -1.04 1.04 -1.04" fill="#000000" stroke-width="1"></path><path d="M24 15.64a3.66 3.66 0 0 0 -7.32 0v3.13h1.66l0.43 5.23h3.14l0.43 -5.23H24Z" fill="#000000" stroke-width="1"></path><path d="M17.46 7.56a2.88 2.88 0 1 0 5.76 0 2.88 2.88 0 1 0 -5.76 0" fill="#000000" stroke-width="1"></path><path d="M17.14 22.46H1.84a0.27 0.27 0 0 1 -0.27 -0.26V1.81a0.27 0.27 0 0 1 0.27 -0.26h20.63v2.19A4.37 4.37 0 0 1 24 5.11V0.8a0.75 0.75 0 0 0 -0.75 -0.75H1.84A1.76 1.76 0 0 0 0.07 1.81V22.2A1.76 1.76 0 0 0 1.84 24h15.42Z" fill="#000000" stroke-width="1"></path></g></svg>