<svg xmlns="http://www.w3.org/2000/svg" viewBox="0 0 48 48" height="48" width="48" id="Technology-Robot-1--Streamline-Ultimate.svg"><desc>Technology Robot 1 Streamline Icon: https://streamlinehq.com</desc><g id="Technology-Robot-1--Streamline-Ultimate.svg"><g><path d="M47.86 32.54a5.04 5.04 0 0 0 -1.86 -2.86 9.58 9.58 0 0 0 -5.38 -13.1c-2.1 -0.76 -2.1 -0.78 -2.32 -0.78H9.68c-0.2 0 0 0 -2.32 0.78a9.6 9.6 0 0 0 -5.9 6.26A9.72 9.72 0 0 0 2 29.68a5.04 5.04 0 0 0 -1.84 2.86 5 5 0 0 0 0.62 3.84A5.1 5.1 0 0 0 4 38.66a1 1 0 0 0 1.22 -1.04c-0.12 -2 0.2 -2.96 0.56 -3.16s1.24 0 2.8 1.02a1.04 1.04 0 0 0 0.94 0.1 1 1 0 0 0 0.6 -0.7 5.06 5.06 0 0 0 -4 -6.16 5.62 5.62 0 0 1 2.66 -8.38 15.32 15.32 0 0 0 6.18 12.28L13.5 40a10.64 10.64 0 0 1 4.98 2l1.16 -6.9a15.18 15.18 0 0 0 8.72 0l1.16 6.9a10.64 10.64 0 0 1 4.98 -2l-1.36 -7.32a15.32 15.32 0 0 0 6.18 -12.28A5.62 5.62 0 0 1 42 28.72l-0.24 0A5.1 5.1 0 0 0 38 34.88a1 1 0 0 0 1.52 0.62c1.6 -1.04 2.54 -1.2 2.88 -1s0.66 1.12 0.5 3.1a1 1 0 0 0 1.22 1.06 5.1 5.1 0 0 0 3.74 -6.12ZM19.72 27.76a2 2 0 0 1 -2 -2v-3.54a2 2 0 0 1 2 -2h8.56a2 2 0 0 1 2 2v3.54a2 2 0 0 1 -2 2Z" fill="#000000" stroke-width="1"></path><path d="M11.54 41.86a6.14 6.14 0 0 0 -5.38 3.18 2 2 0 0 0 0 2A2 2 0 0 0 8 48h7.78a2 2 0 0 0 2 -2l0.22 -1.4c-0.74 -1.54 -2.44 -2.34 -6.46 -2.74Z" fill="#000000" stroke-width="1"></path></g><path d="M41.84 45.04a6.14 6.14 0 0 0 -5.38 -3.18c-2.64 0.26 -5.46 0.68 -6.52 2.74l0.24 1.36a2 2 0 0 0 2 2H40a2 2 0 0 0 1.72 -0.98 2 2 0 0 0 0.12 -1.94Z" fill="#000000" stroke-width="1"></path><path d="M34 8a1 1 0 0 1 0 -2h5.3v-1A5.02 5.02 0 0 0 34.32 0H13.68a5.02 5.02 0 0 0 -5 5V6H14a1 1 0 0 1 0 2H8.68v3.78a1 1 0 0 0 1 1h28.64a1 1 0 0 0 1 -1V8Zm-14.52 1a2 2 0 1 1 2 -2 2 2 0 0 1 -1.98 2Zm9 0a2 2 0 1 1 2 -2 2 2 0 0 1 -1.98 2Z" fill="#000000" stroke-width="1"></path></g></svg>