<svg xmlns="http://www.w3.org/2000/svg" viewBox="0 0 48 48" height="48" width="48" id="Medical-Nanobot-Search--Streamline-Ultimate.svg"><desc>Medical Nanobot Search Streamline Icon: https://streamlinehq.com</desc><g id="Medical-Nanobot-Search--Streamline-Ultimate.svg"><path d="m46.82 41.18 -8.14 -8.14a0.52 0.52 0 0 1 0 -0.62 21 21 0 1 0 -6.2 6.2 0.48 0.48 0 0 1 0.62 0l8.14 8.14a4 4 0 0 0 5.64 -5.64ZM21 38a17 17 0 1 1 17 -17 17.02 17.02 0 0 1 -17 17Z" fill="#000000" stroke-width="1"></path><path d="M28.42 20a0.98 0.98 0 0 1 -0.42 -0.7 1.06 1.06 0 0 1 0.28 -0.76l0.58 -0.54a2.2 2.2 0 0 0 0 -3.12l-6.3 -6.24a2.2 2.2 0 0 0 -3.12 0L13.14 14.94a2.2 2.2 0 0 0 0 3.06l0.5 0.48a1.06 1.06 0 0 1 0.36 0.82 0.98 0.98 0 0 1 -0.34 0.72l-2.96 2.46a2 2 0 0 0 -0.48 2.42L13.72 32a2 2 0 0 0 1.78 1.1 1.86 1.86 0 0 0 0.9 -0.22 2 2 0 0 0 0.88 -2.68l-2.44 -5a1.02 1.02 0 0 1 0.24 -1.2l1.44 -1.24a1.02 1.02 0 0 1 1.36 0l0.82 0.82a0.98 0.98 0 0 1 0.3 0.72v6.7a2 2 0 0 0 4 0v-6.66a0.98 0.98 0 0 1 0.3 -0.72l0.82 -0.82a1.02 1.02 0 0 1 1.36 0l1.44 1.24a1.02 1.02 0 0 1 0.24 1.2l-2.44 4.9a2 2 0 0 0 0.88 2.68 1.86 1.86 0 0 0 0.9 0.22 2 2 0 0 0 1.78 -1.1l3.5 -7a2 2 0 0 0 -0.48 -2.42Zm-7.42 0a3.5 3.5 0 1 1 3.5 -3.5A3.5 3.5 0 0 1 21 20Z" fill="#000000" stroke-width="1"></path></g></svg>