<svg xmlns="http://www.w3.org/2000/svg" fill="none" viewBox="0 0 48 48" height="48" width="48" id="Online-Graduation--Streamline-Ultimate.svg"><desc>Online Graduation Streamline Icon: https://streamlinehq.com</desc><path fill="#000000" fill-rule="evenodd" d="M40.692 4.128c0.494 0 0.8 0.306 0.8 0.8v10.888a11.3 11.3 0 0 1 4 1.48V4.926c0 -2.704 -2.096 -4.8 -4.8 -4.8h-35.6a4.732 4.732 0 0 0 -4.8 4.8v27.4c0 2.706 2.094 4.8 4.8 4.8h11.126l-0.7 4h-0.826a2 2 0 1 0 0 4h15.3l1.424 -10.174a11.42 11.42 0 0 1 -1.434 -1.826H5.092c-0.496 0 -0.8 -0.304 -0.8 -0.8v-27.4c0 -0.494 0.304 -0.8 0.8 -0.8h35.6Zm-6.54 32.918c1.62 0.886 3.482 1.39 5.46 1.39 1.978 0 3.838 -0.504 5.46 -1.39l1.25 8.936c0.24 1.436 -1.44 2.396 -2.636 1.436l-4.074 -4.072 -4.074 4.074c-0.96 0.958 -2.876 0 -2.636 -1.44l1.25 -8.934Zm5.46 -1.61a8.388 8.388 0 1 1 0 -16.774 8.388 8.388 0 0 1 0 16.774Zm0 -5.798a2.59 2.59 0 1 1 0 -5.18 2.59 2.59 0 0 1 0 5.18ZM12.382 19.31l4.826 2.128c1.58 0.7 3.384 0.694 4.96 -0.012l4.62 -2.068v4.088a1.508 1.508 0 0 1 -0.544 1.196c-1.026 0.816 -3.422 2.408 -6.562 2.408 -3.134 0 -5.634 -1.584 -6.716 -2.404a1.526 1.526 0 0 1 -0.584 -1.234V19.31Zm-3.38 -6.748a1.31 1.31 0 0 0 0 2.396l9.262 4.086c0.904 0.4 1.934 0.396 2.836 -0.008l6.404 -2.868v1.494a1.746 1.746 0 0 0 3.492 0V14.06a1.748 1.748 0 0 0 -0.012 -0.206 1.294 1.294 0 0 0 -0.772 -1.288l-9.112 -4.08a3.49 3.49 0 0 0 -2.836 -0.008L9.004 12.56Z" clip-rule="evenodd" stroke-width="1"></path></svg>