<svg xmlns="http://www.w3.org/2000/svg" viewBox="0 0 48 48" height="48" width="48" id="Design-Tool-Quill-2--Streamline-Ultimate.svg"><desc>Design Tool Quill 2 Streamline Icon: https://streamlinehq.com</desc><path d="M47.6 2.52A1.5 1.5 0 0 0 46.32 0 47.74 47.74 0 0 0 9.26 27.32L4 38.98a1.3 1.3 0 0 0 0 0.26L0.3 44.94a2 2 0 1 0 3.4 2.12l9.02 -14.4a1 1 0 0 1 1.7 1.06L12 37.5A0.48 0.48 0 0 0 12 38a0.52 0.52 0 0 0 0.58 0.14l6.94 -2.74a24.68 24.68 0 0 0 11.7 -9.66 0.5 0.5 0 0 0 0 -0.6l-4.6 -5.32a0.5 0.5 0 0 1 0.38 -0.82H34a0.42 0.42 0 0 0 0.4 -0.26 21.84 21.84 0 0 1 4.1 -6.4Z" fill="#000000" stroke-width="1"></path></svg>