<svg xmlns="http://www.w3.org/2000/svg" viewBox="0 0 48 48" height="48" width="48" id="Whatsapp--Streamline-Ios-14.svg"><desc>Whatsapp Streamline Icon: https://streamlinehq.com</desc><g id="Whatsapp--Streamline-Ios-14.svg"><path d="M32 26.760000000000005s-2.552 -1.2640000000000002 -3.008 -1.4160000000000001a1.2000000000000002 1.2000000000000002 0 0 0 -1.6 0.41600000000000004c-0.21600000000000003 0.336 -0.8640000000000001 1.096 -1.2000000000000002 1.536a10.792000000000002 10.792000000000002 0 0 1 -3.28 -1.968 15.12 15.12 0 0 1 -2.16 -2.568 6.056000000000001 6.056000000000001 0 0 0 1.2000000000000002 -1.64 1.32 1.32 0 0 0 0 -1.2000000000000002l-0.752 -1.8079999999999998 -0.472 -1.1039999999999999a1.8079999999999998 1.8079999999999998 0 0 0 -1.4400000000000002 -1.056 2.624 2.624 0 0 0 -2.304 0.672c-2.192 2.3440000000000003 -2.096 5.192 0.20800000000000002 8.224a16.568 16.568 0 0 0 7.128 6.192 12.8 12.8 0 0 0 4.152 1.2000000000000002 4.68 4.68 0 0 0 4.2 -2.504 2.4000000000000004 2.4000000000000004 0 0 0 0.15200000000000002 -2.4000000000000004 1.6 1.6 0 0 0 -0.8240000000000001 -0.576Z" fill="#03b901" stroke-width="1"></path><path d="M37.6 0H10.4A10.4 10.4 0 0 0 0 10.4v27.200000000000003a10.4 10.4 0 0 0 10.4 10.4h27.200000000000003a10.4 10.4 0 0 0 10.4 -10.4V10.4A10.4 10.4 0 0 0 37.6 0Zm-1.4800000000000002 31.752a14.328000000000001 14.328000000000001 0 0 1 -19.8 4.296l-5.032 1.6a0.592 0.592 0 0 1 -0.752 -0.752l1.6 -4.800000000000001A14.12 14.12 0 0 1 9.600000000000001 24a14.4 14.4 0 1 1 26.52 7.792000000000001Z" fill="#03b901" stroke-width="1"></path></g></svg>